<?xml version="1.0" encoding="UTF-8"?>
<svg id="Layer_1" data-name="Layer 1" xmlns="http://www.w3.org/2000/svg" version="1.1" viewBox="0 0 523.9 260.6">
  <defs>
    <style>
      .cls-1 {
        fill: #fff;
        stroke-width: 0px;
      }
    </style>
  </defs>
  <path class="cls-1" d="M85.7,131.4c-3.1,0-5.7-1-7.7-3.1-2-2.1-3.1-4.6-3.1-7.6s1-5.5,3.1-7.6c2-2.1,4.6-3.1,7.7-3.1s5.7,1,7.7,3.1c2,2.1,3.1,4.6,3.1,7.6s-1,5.5-3.1,7.6c-2,2.1-4.6,3.1-7.7,3.1ZM76.4,139h18.5v65h-18.5v-65Z"/>
  <path class="cls-1" d="M127.7,173.6v30.4h-18.5v-92.8h18.5v52.1l19.4-24.3h21l-24.3,28.8,27.7,36.2h-22l-21.8-30.4Z"/>
  <path class="cls-1" d="M65.2,157.8c-1.6-4.2-3.8-7.8-6.5-10.9-2.8-3.1-6.1-5.5-10.1-7.4-3.9-1.8-8.5-2.9-13-2.7-6.7.2-12.3,2.9-17,6.7v-32.4H0v92.9h15.1l1-6.8h0c4.8,5.8,11.7,8.8,19.3,8.8s17.3-4.3,23-10.2c3-3.1,5.2-6.8,6.8-11,1.6-4.2,2.4-8.8,2.4-13.6s-.8-9.2-2.4-13.4ZM49.7,178.1c-.9,2.1-2.1,3.9-3.6,5.4-1.5,1.6-3.2,2.8-5.3,3.7-2,.9-4.2,1.3-6.5,1.3s-4.5-.5-6.6-1.4c-2.1-.9-3.9-2.2-5.4-3.7-1.5-1.5-2.7-3.3-3.6-5.4-.9-2.1-1.3-4.3-1.3-6.6s.5-4.6,1.4-6.7c.9-2.1,2.1-3.9,3.6-5.5,1.5-1.6,3.2-2.8,5.3-3.7,2-.9,4.2-1.3,6.5-1.3s4.6.5,6.6,1.4c2,.9,3.8,2.2,5.3,3.8,1.5,1.6,2.7,3.4,3.6,5.5.9,2.1,1.3,4.3,1.3,6.7s-.5,4.4-1.4,6.5Z"/>
  <path class="cls-1" d="M228.1,180.7c-5.3,4.6-16.3,10.2-25.5,10.2s-11.5-1.1-14.8-7.2l43.9-13.2c-.9-9.7-5.1-19.3-10.1-24.5-7.6-8-19-11.5-31.2-7.4-13.9,4.6-23.3,17.9-23.3,32.9s15.2,34.6,33.9,34.6,30.6-10.8,30.7-11l-3.8-14.3ZM185.3,160.4c1.9-3.7,5.2-6.5,9.1-7.7,1.7-.5,3.5-.8,5.2-.9,6.5-.2,11.9,3.5,14.2,9.5-1.9.6-24.3,7.3-29.8,8.9-.7-3.2-.3-6.7,1.3-9.8Z"/>
  <g>
    <path class="cls-1" d="M388.3,184.5h0c0,5.3,3.6,7.9,9.6,7.9s11.3-4.8,11.3-11.7v-5.2c-.9-.1-3.3-.3-4.8-.3-10.3,0-16.1,3.1-16.1,9.2Z"/>
    <path class="cls-1" d="M514.8,33.8c-2.7-12.9-10.2-21.4-24.7-24.7-23.6-5.9-58.4-9.1-96.5-9.1s-72.9,3.2-96.5,9.1c-14.5,3.2-22,11.8-24.7,24.7-5.4,22.5-9.1,58.4-9.1,96.5s3.7,74,9.1,96.5c2.7,12.9,10.2,21.4,24.7,24.7,23.6,5.9,58.4,9.1,96.5,9.1s72.9-3.2,96.5-9.1c14.5-3.2,22-11.8,24.7-24.7,5.4-22.5,9.1-58.4,9.1-96.5s-3.7-74-9.1-96.5ZM451.1,119.5l31.8-5.7v16.6h-31.8v-10.9ZM311.3,204.5h-19.1v-65.3h19.1v65.3ZM301.7,132.4c-6.7,0-11.3-4.4-11.3-10.9s4.7-10.9,11.3-10.9,11.3,4.4,11.3,10.9-4.7,10.9-11.3,10.9ZM362.9,204.5c-2.1.6-6.5,1.3-11.8,1.3-14.7,0-23-7.9-23-23.8v-27.9h-9.6v-14.8h9.6v-16.3l19.1-3.4v19.7h16.6v14.8h-16.6v26.7c0,6.9,2.8,9.9,8.9,9.9s5.4-.4,6.8-.7v14.6ZM427.5,204.5h0s-17.9,0-17.9,0l-.3-6.8c-3.9,5.3-9.4,8.4-17.1,8.4-13.7,0-22.4-7.8-22.4-20.1s12.7-22.5,32.8-22.5,4.9.1,6.4.3c0-7-4.9-11.1-13.7-11.1s-14.6,1.8-22.1,4.7v-15.3c7.7-2.9,15.6-4.4,25.2-4.4,18.6,0,29.1,9.9,29.1,28.6v38.4ZM495.1,204.5h0s-18.4,0-18.4,0l-.3-7c-4.3,5.8-9.7,8.7-17.6,8.7-13.4,0-22-9.6-22-24.5v-42.4h19.1v39.2c0,7.9,3.4,12.2,9.7,12.2s10.3-5,10.3-13v-38.5h19.1v65.3Z"/>
  </g>
</svg>